<?xml version="1.0" ?>
<!DOCTYPE svg  PUBLIC '-//W3C//DTD SVG 1.1//EN'  'http://www.w3.org/Graphics/SVG/1.1/DTD/svg11.dtd'>
<!-- Uploaded to: SVG Repo, www.svgrepo.com, Generator: SVG Repo Mixer Tools -->
<svg fill="#000000" width="800px" height="800px" viewBox="0 -0.5 32 32" style="fill-rule:evenodd;clip-rule:evenodd;stroke-linejoin:round;stroke-miterlimit:2;" version="1.1" xml:space="preserve" xmlns="http://www.w3.org/2000/svg" xmlns:serif="http://www.serif.com/" xmlns:xlink="http://www.w3.org/1999/xlink">
<g transform="matrix(1,0,0,1,-384,-144)">
<g transform="matrix(0.875,0,0,0.875,90.25,19.125)">
<path d="M340.924,147.74C341.224,146.789 342.107,146.143 343.104,146.143C347.705,146.143 360.491,146.143 364.985,146.143C365.965,146.143 366.836,146.768 367.15,147.697C368.119,150.386 370,155.73 370,157C370,159.208 368.208,161 366,161C363.792,161 362,159.208 362,157C362,159.208 360.208,161 358,161C355.792,161 354,159.208 354,157C354,159.208 352.208,161 350,161C347.792,161 346,159.208 346,157C346,159.208 344.208,161 342,161C340.53,161 339.244,160.205 338.549,159.022C338.057,158.185 337.944,157.179 338.236,156.254C338.787,154.507 340.172,150.121 340.924,147.74Z" style="fill:rgb(144,224,239);"/>
</g>
<g transform="matrix(1,0,0,1.32454,48,-56.1457)">
<path d="M341.026,160.675C341.026,160.675 341.01,168.196 341.003,171.488C341.002,171.889 341.213,172.273 341.588,172.557C341.963,172.841 342.472,173 343.003,173C347.188,173 356.817,173 361,173C361.53,173 362.039,172.841 362.414,172.558C362.789,172.275 363,171.891 363,171.49C363,168.2 363,160.675 363,160.675" style="fill:rgb(144,224,239);"/>
</g>
<g transform="matrix(1,0,0,1,48,0)">
<path d="M355,168C355,166.895 354.105,166 353,166C352.356,166 351.644,166 351,166C349.895,166 349,166.895 349,168C349,170.069 349,173 349,173L355,173L355,168Z" style="fill:rgb(144,224,239);"/>
</g>
<g transform="matrix(1.11111,0,0,1.11111,-47.2678,-87.5361)">
<circle cx="411.5" cy="213.5" r="4.5" style="fill:rgb(144,224,239);"/>
</g>
<path d="M405.529,146C406.628,144.773 408.225,144 410,144C413.311,144 416,146.689 416,150C416,151.549 415.412,152.962 414.446,154.027C414.775,155.15 415,156.076 415,156.5C415,158.459 413.746,160.127 411.998,160.744L411.998,171C411.998,171.796 411.682,172.559 411.119,173.121C410.557,173.684 409.794,174 408.998,174L391.002,174C390.205,174 389.441,173.683 388.879,173.119C388.316,172.555 388,171.79 388.002,170.994L388.024,160.752C387.007,160.399 386.155,159.691 385.618,158.776L385.618,158.776C385.044,157.799 384.912,156.626 385.253,155.546L387.605,148.097C387.999,146.849 389.157,146 390.466,146L405.529,146ZM409.998,160.972C408.79,160.838 407.726,160.225 407,159.327C406.175,160.347 404.913,161 403.5,161C402.087,161 400.825,160.347 400,159.327C399.175,160.347 397.913,161 396.5,161C395.087,161 393.825,160.347 393,159.327C392.278,160.219 391.222,160.831 390.023,160.97L390.002,170.998C390.002,171.263 390.107,171.518 390.294,171.706C390.482,171.894 390.736,172 391.002,172L396,172L396,168C396,166.343 397.343,165 399,165L401,165C402.657,165 404,166.343 404,168L404,172L408.998,172C409.263,172 409.517,171.895 409.705,171.707C409.893,171.52 409.998,171.265 409.998,171L409.998,160.972ZM402,172L398,172L398,168C398,167.448 398.448,167 399,167C399,167 401,167 401,167C401.552,167 402,167.448 402,168L402,172ZM404.342,148L390.466,148C390.03,148 389.644,148.283 389.512,148.699L387.16,156.148C386.99,156.688 387.056,157.275 387.342,157.763C387.777,158.503 388.581,159 389.5,159C390.88,159 392,157.88 392,156.5C392,155.003 394,155.003 394,156.5C394,157.88 395.12,159 396.5,159C397.88,159 399,157.88 399,156.5C399,155.004 401,155.004 401,156.5C401,157.88 402.12,159 403.5,159C404.88,159 406,157.88 406,156.5C406,154.986 408,154.986 408,156.5C408,157.88 409.12,159 410.5,159C411.88,159 413,157.88 413,156.5C413,156.259 412.917,155.843 412.779,155.318C411.948,155.753 411.003,156 410,156C406.689,156 404,153.311 404,150C404,149.299 404.12,148.626 404.342,148ZM410,146C412.208,146 414,147.792 414,150C414,152.208 412.208,154 410,154C407.792,154 406,152.208 406,150C406,147.792 407.792,146 410,146ZM407.543,151.207L408.546,152.21C408.733,152.397 408.988,152.503 409.253,152.503C409.519,152.503 409.773,152.397 409.961,152.209L412.458,149.706C412.848,149.316 412.847,148.682 412.456,148.292C412.066,147.902 411.432,147.903 411.042,148.294L409.252,150.088C409.252,150.088 408.957,149.793 408.957,149.793C408.567,149.403 407.933,149.403 407.543,149.793C407.153,150.183 407.153,150.817 407.543,151.207Z" style="fill:rgb(25,144,167);"/>
</g>
</svg>